<svg width="50" height="50" viewBox="0 0 50 50" fill="none" xmlns="http://www.w3.org/2000/svg">
<g clip-path="url(#clip0_8_3)">
<path d="M-2.59907 19.8056C-3.52925 17.3063 -4.17321 14.7356 -3.95856 12.0833C-3.81545 10.4409 -3.17149 9.01276 -1.9551 7.79882C-0.66717 6.51347 0.630986 5.22811 1.91892 3.94276C3.63617 2.30037 5.78272 2.30037 7.43864 3.94276C8.51192 4.94248 9.51364 6.01361 10.5869 7.08473C11.5886 8.08445 12.5904 9.08417 13.6637 10.1553C15.4525 11.9405 15.4525 14.0113 13.6637 15.8068C12.3757 17.0921 11.1593 18.3775 9.79985 19.5914C9.44209 19.9484 9.44209 20.1627 9.5852 20.5911C10.4438 22.662 11.6602 24.4472 13.0197 26.1712C15.8102 29.5988 18.9687 32.6081 22.6894 34.9646C23.4765 35.4645 24.4067 35.8215 25.1937 36.3214C25.623 36.5356 25.9092 36.4642 26.267 36.1072C27.5549 34.8218 28.8429 33.5364 30.1308 32.2511C31.8481 30.5373 33.9946 30.5373 35.6505 32.2511C37.7255 34.3219 39.8005 36.3928 41.8858 38.4738C43.603 40.1876 43.603 42.3299 41.8858 44.1253C40.7409 45.3392 39.453 46.4104 38.3797 47.6957C36.734 49.4809 34.7306 50.1236 32.3591 49.9808C29.0678 49.7666 25.9808 48.624 22.9756 47.1959C16.3111 43.9825 10.5869 39.4735 5.78272 33.7609C2.27668 29.5274 -0.66717 25.0286 -2.59907 19.8056Z" fill="white"/>
<path d="M40.7921 9.85946L42.7036 11.7671L45.0341 14.093C46.3221 15.3783 46.3221 17.4594 45.0341 18.7447C43.7462 20.0301 41.661 20.0301 40.373 18.7447L38.0425 16.4188L36.131 14.501L34.2196 16.4086L31.889 18.7345C30.6011 20.0199 28.5158 20.0199 27.2279 18.7345C25.94 17.4492 25.94 15.3681 27.2279 14.0828L29.5585 11.7569L31.4699 9.84926L27.2279 5.61576C25.94 4.33041 25.94 2.24936 27.2279 0.964014C28.5158 -0.321338 30.6011 -0.321338 31.889 0.964014L36.131 5.20771L40.373 0.974215C41.661 -0.311137 43.7462 -0.311137 45.0341 0.974215C46.3221 2.25957 46.3221 4.34061 45.0341 5.62596L40.7921 9.85946Z" fill="white"/>
</g>
<defs>
<clipPath id="clip0_8_3">
<rect width="50" height="50" fill="white"/>
</clipPath>
</defs>
</svg>
