<svg width="74" height="74" viewBox="0 0 74 74" fill="none" xmlns="http://www.w3.org/2000/svg">
<path d="M62.5434 0H11.4566C5.13939 0 0 5.13939 0 11.4566V20.7451C0 27.0622 5.13939 32.2016 11.4566 32.2016H31.4578L35.4671 36.2109C36.3138 37.0577 37.6862 37.0574 38.533 36.2109L42.5423 32.2016H62.5436C68.8608 32.2016 74.0001 27.0622 74.0001 20.745V11.4566C74 5.13939 68.8606 0 62.5434 0V0ZM69.6641 20.745C69.6641 24.6713 66.4698 27.8656 62.5434 27.8656H41.6442C41.0691 27.8656 40.5177 28.094 40.1113 28.5005L37 31.6119L33.8887 28.5005C33.4821 28.094 32.9307 27.8655 32.3558 27.8655H11.4566C7.53022 27.8656 4.33594 24.6713 4.33594 20.745V11.4566C4.33594 7.53022 7.53022 4.33594 11.4566 4.33594H62.5436C66.4698 4.33594 69.6641 7.53022 69.6641 11.4566V20.745Z" fill="#BECAE4"/>
<path d="M62.5442 9.28833H11.4573C8.58085 9.40294 8.58302 13.5108 11.4573 13.6243H62.5443C65.4207 13.5097 65.4185 9.40179 62.5442 9.28833Z" fill="#BECAE4"/>
<path d="M34.6786 18.5771H11.4573C8.58085 18.6918 8.58302 22.7996 11.4573 22.9131H34.6787C37.555 22.7986 37.5529 18.6906 34.6786 18.5771Z" fill="#BECAE4"/>
<path d="M66.708 55.0348C72.3784 49.3868 68.3124 39.4575 60.2213 39.4766C52.1305 39.4575 48.0639 49.3884 53.7348 55.0348C51.649 56.1526 49.8824 57.791 48.6106 59.7761C47.339 57.7912 45.5723 56.1526 43.4866 55.0349C49.1572 49.387 45.091 39.4577 36.9999 39.4767C28.909 39.4577 24.8425 49.3885 30.5134 55.0349C28.4277 56.1528 26.661 57.7912 25.3894 59.7761C24.1178 57.7912 22.351 56.1526 20.2653 55.0349C25.9358 49.387 21.8697 39.4577 13.7786 39.4767C5.68774 39.4577 1.62121 49.3885 7.29218 55.0349C2.9561 57.3583 0 61.9341 0 67.188V71.8322C0 73.0295 0.970672 74.0002 2.16797 74.0002H71.832C73.0293 74.0002 74 73.0295 74 71.8322V67.188C74 61.9341 71.0439 57.3583 66.708 55.0348ZM13.7786 43.8124C16.4244 43.8124 18.577 45.965 18.577 48.6108C18.3134 54.9766 9.24277 54.9747 8.98016 48.6108C8.98016 45.965 11.1328 43.8124 13.7786 43.8124ZM23.2214 69.6643H4.33594V67.188C4.85611 54.6579 22.7059 54.6675 23.2214 67.188V69.6643ZM37 43.8124C39.6459 43.8124 41.7984 45.965 41.7984 48.6108C41.5348 54.9766 32.4642 54.9747 32.2016 48.6108C32.2016 45.965 34.3541 43.8124 37 43.8124ZM46.4427 69.6643H27.5573V67.188C28.0775 54.6579 45.9273 54.6675 46.4428 67.188V69.6643H46.4427ZM60.2214 43.8124C62.8672 43.8124 65.0197 45.965 65.0197 48.6108C64.7561 54.9766 55.6856 54.9747 55.423 48.6108C55.423 45.965 57.5755 43.8124 60.2214 43.8124ZM69.6641 69.6643H50.7786V67.188C51.2988 54.658 69.1485 54.6674 69.6641 67.188V69.6643Z" fill="#BECAE4"/>
</svg>
