<svg width="82" height="74" viewBox="0 0 82 74" fill="none" xmlns="http://www.w3.org/2000/svg">
<path d="M64.3113 36.0931V7.87485C64.3113 3.53269 60.7786 0 56.4364 0H7.87485C3.53269 0 0 3.53269 0 7.87485V36.0931C0 40.4352 3.53269 43.9679 7.87485 43.9679H14.9434L15.0941 51.0781C15.1392 53.2143 17.5923 54.4054 19.2986 53.1187L31.4362 43.9681H56.4364C60.7786 43.9679 64.3113 40.4352 64.3113 36.0931ZM30.5577 38.718C29.9874 38.718 29.4329 38.9037 28.9775 39.247L20.2341 45.8387L20.1376 41.2875C20.1073 39.8599 18.9413 38.7182 17.5133 38.7182H7.87485C6.42752 38.7182 5.2499 37.5406 5.2499 36.0932V7.87502C5.2499 6.42769 6.42752 5.25007 7.87485 5.25007H56.4364C57.8838 5.25007 59.0614 6.42769 59.0614 7.87502V36.0932C59.0614 37.5406 57.8838 38.7182 56.4364 38.7182L30.5577 38.718ZM81.3735 26.4898V58.0859C81.3735 62.4282 77.8409 65.9608 73.4986 65.9608H66.419L66.2792 71.4417C66.2428 72.868 65.0738 73.9997 63.6552 73.9997C62.6077 73.9997 63.1909 74.1813 50.0619 65.9608H38.0618C36.612 65.9608 35.4368 64.7856 35.4368 63.3358C35.4368 61.886 36.612 60.7108 38.0618 60.7108C51.9849 60.7108 51.3344 60.5635 52.2088 61.1108L61.1482 66.708L61.2358 63.2687C61.2723 61.8455 62.4363 60.7107 63.86 60.7107H73.4986C74.946 60.7107 76.1236 59.5331 76.1236 58.0857V26.4896C76.1236 25.0423 74.946 23.8646 73.4986 23.8646C72.0488 23.8646 70.8737 22.6895 70.8737 21.2397C70.8737 19.7899 72.0488 18.6147 73.4986 18.6147C77.8409 18.6149 81.3735 22.1474 81.3735 26.4898ZM48.5616 17.2262C48.5616 18.676 47.3864 19.8512 45.9366 19.8512H18.3747C16.9249 19.8512 15.7497 18.676 15.7497 17.2262C15.7497 15.7764 16.9249 14.6013 18.3747 14.6013H45.9366C47.3864 14.6013 48.5616 15.7764 48.5616 17.2262ZM43.8039 28.7104C43.8039 30.1602 42.6287 31.3354 41.1789 31.3354H23.1324C21.6826 31.3354 20.5074 30.1602 20.5074 28.7104C20.5074 27.2606 21.6826 26.0855 23.1324 26.0855H41.1789C42.6287 26.0855 43.8039 27.2606 43.8039 28.7104Z" fill="#DCDCDC"/>
</svg>
