<svg width="35" height="35" viewBox="0 0 35 35" fill="none" xmlns="http://www.w3.org/2000/svg">
<path d="M17.5 35C20.2594 35 22.4977 33.0415 22.4977 30.625H12.5024C12.5024 33.0415 14.7407 35 17.5 35ZM34.3274 24.7659C32.818 23.3468 29.9938 21.2119 29.9938 14.2188C29.9938 8.90723 25.7375 4.65527 19.9985 3.61211V2.1875C19.9985 0.97959 18.8797 0 17.5 0C16.1204 0 15.0016 0.97959 15.0016 2.1875V3.61211C9.26255 4.65527 5.0063 8.90723 5.0063 14.2188C5.0063 21.2119 2.18208 23.3468 0.67271 24.7659C0.20396 25.2068 -0.00385223 25.7339 5.40147e-05 26.25C0.00864776 27.3711 1.01412 28.4375 2.50786 28.4375H32.4922C33.986 28.4375 34.9922 27.3711 35 26.25C35.0039 25.7339 34.7961 25.2062 34.3274 24.7659Z" fill="#B9BBBE"/>
</svg>
