<svg width="35" height="35" viewBox="0 0 35 35" fill="none" xmlns="http://www.w3.org/2000/svg">
<path d="M17.5 10.2565V7.43091C20.0802 7.44397 22.6563 8.43151 24.6206 10.3957C26.5615 12.3367 27.5603 14.816 27.5961 17.3654H24.7692C24.7337 15.5401 24.0115 13.7845 22.6217 12.3947C21.2085 10.9814 19.3563 10.2694 17.5 10.2565ZM27.6808 7.33547C30.4655 10.1201 31.8679 13.7078 31.9038 17.3654H34.7308C34.6947 12.9838 33.0155 8.67233 29.6799 5.33657C26.4249 2.08157 22.1011 0.284048 17.5 0.270721V3.09764C21.3459 3.11097 24.9598 4.61449 27.6808 7.33547ZM1.2896 8.17103C0.224931 9.50385 -2.14201 15.8555 8.00449 26.2561C18.6928 37.2121 25.5896 34.8685 26.7769 33.6322L19.6289 26.4842C18.6314 27.4817 17.3448 26.5962 14.8759 24.5833C13.2424 23.2514 11.363 21.4598 9.73335 19.4408C8.58993 18.0239 7.5787 16.5362 8.62332 15.4915L1.2896 8.17103ZM29.3608 31.0734C29.8228 30.6114 29.7779 29.9036 29.356 29.4817V29.4751C29.356 29.4751 23.7817 23.9073 23.7782 23.9039C23.3362 23.462 22.6296 23.4717 22.1944 23.907L20.1695 25.9319L27.3359 33.0983C27.3359 33.0983 29.3589 31.0815 29.3589 31.0781L29.3608 31.0734ZM11.2012 12.9137C11.6632 12.4517 11.6182 11.7439 11.1964 11.322V11.3154C11.1964 11.3154 5.46133 5.58682 5.45797 5.58345C5.01603 5.14151 4.30943 5.1512 3.87422 5.58655L1.8492 7.61143L9.17632 14.9385C9.17632 14.9385 11.1993 12.9219 11.1993 12.9185L11.2012 12.9137Z" fill="#B9BBBE"/>
</svg>
